{"title":"Frankie And Alice (2010)(Promo)(DivX)(AC3)(DD2.0)(Nl Subs ext)TB","uid":6312914,"size":1343332695,"categoryP":"video","categoryS":"movies","magnet":"?xt=urn:btih:fbc3b228bc7f73e4076394f34cd895fa301f6e19&amp;dn=Frankie+And+Alice+%282010%29%28Promo%29%28DivX%29%28AC3%29%28DD2.0%29%28Nl+Subs+ext%29TB&amp;tr=udp%3A%2F%2Ftracker.openbittorrent.com%3A80&amp;tr=udp%3A%2F%2Fopen.demonii.com%3A1337&amp;tr=udp%3A%2F%2Ftracker.coppersurfer.tk%3A6969&amp;tr=udp%3A%2F%2Fexodus.desync.com%3A6969","seeders":0,"leechers":1,"uploader":"Vlinder.","files":-1,"time":1302602872,"description":"Frankie And Alice (2010)(Promo)(DivX)(AC3)(DD2.0)(Nl Subs extern)TBS\n\n\n\n\nCanada\nDrama / Thriller\n101 minuten\n\ngeregisseerd door Geoffrey Sax\nmet Halle Berry, Stellan SkarsgÃƒÂ¥rd en Phylicia Rashad\n\nEen jonge vrouw (Berry) worstelt met een meervoudige persoonlijkheidsstoornis. Aan de ene kant is ze gewoon wie ze is, een donkere vrouw. Aan de andere kant is ze echter een blanke racist. Ze wordt verscheurd door de problemen die deze tegenstelling voor haar oplevert.\n\n\nStoryline\n\nA drama centered on a young woman with multiple personality disorder who struggles to remain her true self and not give in to her racist alter-personality.\n\n\n\n\n\n \nSOURCE..........: Frankie And Alice 2010 DVDSCR NTSC READ NFO DVDR-KART3LDVD\nSIZE............: 1.25GB\nFORM............: AVI\nVIDEO CODEC.....: XVID \nBITRATE.........: 1508 Kbit/s\nWIDTH &amp; HEIGHT..: 720 X 304\nFRAMES/S........: 23.976 Fps\nAUDIO...........: English\nAUDIO CODE......: AC3\nBITRATE.........: 256kbps\nCHANNELS........: 2(stereo)\nSAMPLING........: 48.0 kHz\nSubtitles.......: Dutch srt\nCover en label..: meegepost\nVertaling.......: TackleR \n\n\nPrima video en audio kwaliteit!\nIk heb geen nags gezien.\n\nSCREENS:\n &lt;a href=&quot;\nhttp://bayimg.com/KAHMaaaDI&quot; rel=&quot;nofollow&quot; target=&quot;_NEW&quot;&gt;\nhttp://bayimg.com/KAHMaaaDI&lt;/a&gt;\n\n\nGeneral\nFormat                           : AVI\nFormat/Info                      : Audio Video Interleave\nFile size                        : 1.25 GiB\nDuration                         : 1h 41mn\nOverall bit rate                 : 1 765 Kbps\nWriting application              : Nandub v1.0rc2\nWriting library                  : Nandub build 1853/release\n\nVideo\nID                               : 0\nFormat                           : MPEG-4 Visual\nFormat profile                   : Advanced Simple@L5\nFormat settings, BVOP            : Yes\nFormat settings, QPel            : Yes\nFormat settings, GMC             : No warppoints\nFormat settings, Matrix          : Default (H.263)\nMuxing mode                      : Packed bitstream\nCodec ID                         : XVID\nCodec ID/Hint                    : XviD\nDuration                         : 1h 41mn\nBit rate                         : 1 499 Kbps\nWidth                            : 720 pixels\nHeight                           : 304 pixels\nDisplay aspect ratio             : 2.35:1\nFrame rate                       : 23.976 fps\nColor space                      : YUV\nChroma subsampling               : 4:2:0\nBit depth                        : 8 bits\nScan type                        : Progressive\nBits/(Pixel*Frame)               : 0.286\nStream size                      : 1.06 GiB (85%)\nWriting library                  : XviD 1.2.1 (UTC 2008-12-04)\n\nAudio\nID                               : 1\nFormat                           : AC-3\nFormat/Info                      : Audio Coding 3\nMode extension                   : CM (complete main)\nCodec ID                         : 2000\nDuration                         : 1h 41mn\nBit rate mode                    : Constant\nBit rate                         : 256 Kbps\nChannel(s)                       : 2 channels\nChannel positions                : Front: L R\nSampling rate                    : 48.0 KHz\nBit depth                        : 16 bits\nStream size                      : 186 MiB (15%)\nAlignment                        : Split accross interleaves\nInterleave, duration             : 42 ms (1.00 video frame)\nInterleave, preload duration     : 500 ms\n\n\n   &lt;a href=&quot;\nhttp://www.moviemeter.nl/film/55201&quot; rel=&quot;nofollow&quot; target=&quot;_NEW&quot;&gt;\nhttp://www.moviemeter.nl/film/55201&lt;/a&gt;  &lt;a href=&quot;\nhttp://www.imdb.com/title/tt1221208&quot; rel=&quot;nofollow&quot; target=&quot;_NEW&quot;&gt;\nhttp://www.imdb.com/title/tt1221208&lt;/a&gt;","torrent":{"xt":"urn:btih:fbc3b228bc7f73e4076394f34cd895fa301f6e19","amp;dn":"Frankie+And+Alice+%282010%29%28Promo%29%28DivX%29%28AC3%29%28DD2.0%29%28Nl+Subs+ext%29TB","amp;tr":["udp%3A%2F%2Ftracker.openbittorrent.com%3A80","udp%3A%2F%2Fopen.demonii.com%3A1337","udp%3A%2F%2Ftracker.coppersurfer.tk%3A6969","udp%3A%2F%2Fexodus.desync.com%3A6969"],"infoHash":"fbc3b228bc7f73e4076394f34cd895fa301f6e19","infoHashBuffer":{"type":"Buffer","data":[251,195,178,40,188,127,115,228,7,99,148,243,76,216,149,250,48,31,110,25]},"announce":[],"urlList":[]}}